<mxfile host="Electron" modified="2024-07-17T08:06:09.715Z" agent="Mozilla/5.0 (Windows NT 10.0; Win64; x64) AppleWebKit/537.36 (KHTML, like Gecko) draw.io/24.6.4 Chrome/124.0.6367.207 Electron/30.0.6 Safari/537.36" etag="Ca6KGiC1vCIEbLaHgKc_" version="24.6.4" type="device">
  <diagram id="C5RBs43oDa-KdzZeNtuy" name="Page-1">
    <mxGraphModel dx="1290" dy="621" grid="1" gridSize="10" guides="1" tooltips="1" connect="1" arrows="1" fold="1" page="1" pageScale="1" pageWidth="827" pageHeight="1169" math="0" shadow="0">
      <root>
        <mxCell id="WIyWlLk6GJQsqaUBKTNV-0" />
        <mxCell id="WIyWlLk6GJQsqaUBKTNV-1" parent="WIyWlLk6GJQsqaUBKTNV-0" />
        <mxCell id="N__cpIRyHn8OjyqF8XuA-0" style="edgeStyle=orthogonalEdgeStyle;rounded=0;orthogonalLoop=1;jettySize=auto;html=1;entryX=0.5;entryY=0;entryDx=0;entryDy=0;" parent="WIyWlLk6GJQsqaUBKTNV-1" source="N__cpIRyHn8OjyqF8XuA-1" target="N__cpIRyHn8OjyqF8XuA-18" edge="1">
          <mxGeometry relative="1" as="geometry" />
        </mxCell>
        <mxCell id="N__cpIRyHn8OjyqF8XuA-1" value="THREAT ASSESSMENT" style="swimlane;whiteSpace=wrap;html=1;" parent="WIyWlLk6GJQsqaUBKTNV-1" vertex="1">
          <mxGeometry x="42" y="140" width="744" height="340" as="geometry">
            <mxRectangle x="42" y="140" width="210" height="30" as="alternateBounds" />
          </mxGeometry>
        </mxCell>
        <mxCell id="N__cpIRyHn8OjyqF8XuA-2" value="" style="edgeStyle=orthogonalEdgeStyle;rounded=0;orthogonalLoop=1;jettySize=auto;html=1;" parent="N__cpIRyHn8OjyqF8XuA-1" source="N__cpIRyHn8OjyqF8XuA-3" target="N__cpIRyHn8OjyqF8XuA-8" edge="1">
          <mxGeometry relative="1" as="geometry" />
        </mxCell>
        <mxCell id="N__cpIRyHn8OjyqF8XuA-3" value="&lt;div&gt;- Transfer rule&lt;/div&gt;&lt;div&gt;- Delegation&lt;/div&gt;" style="shape=document;whiteSpace=wrap;html=1;boundedLbl=1;" parent="N__cpIRyHn8OjyqF8XuA-1" vertex="1">
          <mxGeometry x="608" y="30" width="120" height="80" as="geometry" />
        </mxCell>
        <mxCell id="N__cpIRyHn8OjyqF8XuA-4" value="Check attachments / email code" style="rounded=0;whiteSpace=wrap;html=1;" parent="N__cpIRyHn8OjyqF8XuA-1" vertex="1">
          <mxGeometry x="428" y="40" width="120" height="60" as="geometry" />
        </mxCell>
        <mxCell id="N__cpIRyHn8OjyqF8XuA-5" value="Search for previous instances" style="rounded=0;whiteSpace=wrap;html=1;" parent="N__cpIRyHn8OjyqF8XuA-1" vertex="1">
          <mxGeometry x="238" y="30" width="120" height="60" as="geometry" />
        </mxCell>
        <mxCell id="N__cpIRyHn8OjyqF8XuA-6" value="" style="edgeStyle=orthogonalEdgeStyle;rounded=0;orthogonalLoop=1;jettySize=auto;html=1;" parent="N__cpIRyHn8OjyqF8XuA-1" source="N__cpIRyHn8OjyqF8XuA-7" target="N__cpIRyHn8OjyqF8XuA-5" edge="1">
          <mxGeometry relative="1" as="geometry" />
        </mxCell>
        <mxCell id="N__cpIRyHn8OjyqF8XuA-7" value="Retrieve the email / headers" style="rounded=0;whiteSpace=wrap;html=1;" parent="N__cpIRyHn8OjyqF8XuA-1" vertex="1">
          <mxGeometry x="44" y="30" width="120" height="60" as="geometry" />
        </mxCell>
        <mxCell id="N__cpIRyHn8OjyqF8XuA-8" value="Identify the recipients" style="rounded=0;whiteSpace=wrap;html=1;" parent="N__cpIRyHn8OjyqF8XuA-1" vertex="1">
          <mxGeometry x="608" y="140" width="120" height="60" as="geometry" />
        </mxCell>
        <mxCell id="N__cpIRyHn8OjyqF8XuA-9" value="" style="edgeStyle=orthogonalEdgeStyle;rounded=0;orthogonalLoop=1;jettySize=auto;html=1;" parent="N__cpIRyHn8OjyqF8XuA-1" source="N__cpIRyHn8OjyqF8XuA-10" target="N__cpIRyHn8OjyqF8XuA-7" edge="1">
          <mxGeometry relative="1" as="geometry" />
        </mxCell>
        <mxCell id="N__cpIRyHn8OjyqF8XuA-10" value="&lt;div&gt;- Display name&lt;/div&gt;&lt;div&gt;- Sender address, domain&lt;/div&gt;&lt;div&gt;- Reply-to&lt;/div&gt;&lt;div&gt;- Subject&lt;/div&gt;&lt;div&gt;- Sent date&lt;/div&gt;&lt;div&gt;- Sender IP / Reverse DNS&lt;/div&gt;&lt;div&gt;- Content summary&lt;/div&gt;&lt;div&gt;- DKIM / DMARC / SPF check&lt;/div&gt;" style="shape=document;whiteSpace=wrap;html=1;boundedLbl=1;" parent="N__cpIRyHn8OjyqF8XuA-1" vertex="1">
          <mxGeometry x="18" y="125" width="172" height="195" as="geometry" />
        </mxCell>
        <mxCell id="N__cpIRyHn8OjyqF8XuA-11" value="" style="edgeStyle=orthogonalEdgeStyle;rounded=0;orthogonalLoop=1;jettySize=auto;html=1;" parent="N__cpIRyHn8OjyqF8XuA-1" source="N__cpIRyHn8OjyqF8XuA-13" target="N__cpIRyHn8OjyqF8XuA-4" edge="1">
          <mxGeometry relative="1" as="geometry" />
        </mxCell>
        <mxCell id="N__cpIRyHn8OjyqF8XuA-12" style="edgeStyle=orthogonalEdgeStyle;rounded=0;orthogonalLoop=1;jettySize=auto;html=1;entryX=0.5;entryY=0;entryDx=0;entryDy=0;" parent="N__cpIRyHn8OjyqF8XuA-1" source="N__cpIRyHn8OjyqF8XuA-13" target="N__cpIRyHn8OjyqF8XuA-14" edge="1">
          <mxGeometry relative="1" as="geometry" />
        </mxCell>
        <mxCell id="N__cpIRyHn8OjyqF8XuA-13" value="&lt;div&gt;- Analysis of attachments (content, format, etc.)&lt;/div&gt;&lt;div&gt;- Search for malicious code in the email&lt;/div&gt;&lt;div&gt;- Analysis of URLs&lt;/div&gt;" style="shape=document;whiteSpace=wrap;html=1;boundedLbl=1;" parent="N__cpIRyHn8OjyqF8XuA-1" vertex="1">
          <mxGeometry x="394" y="140" width="188" height="130" as="geometry" />
        </mxCell>
        <mxCell id="N__cpIRyHn8OjyqF8XuA-14" value="Check connections made to these URLs" style="rounded=0;whiteSpace=wrap;html=1;" parent="N__cpIRyHn8OjyqF8XuA-1" vertex="1">
          <mxGeometry x="238" y="240" width="120" height="60" as="geometry" />
        </mxCell>
        <mxCell id="N__cpIRyHn8OjyqF8XuA-15" value="" style="edgeStyle=orthogonalEdgeStyle;rounded=0;orthogonalLoop=1;jettySize=auto;html=1;" parent="N__cpIRyHn8OjyqF8XuA-1" source="N__cpIRyHn8OjyqF8XuA-16" target="N__cpIRyHn8OjyqF8XuA-5" edge="1">
          <mxGeometry relative="1" as="geometry" />
        </mxCell>
        <mxCell id="N__cpIRyHn8OjyqF8XuA-16" value="Email already received by this domain?" style="shape=document;whiteSpace=wrap;html=1;boundedLbl=1;" parent="N__cpIRyHn8OjyqF8XuA-1" vertex="1">
          <mxGeometry x="238" y="120" width="120" height="80" as="geometry" />
        </mxCell>
        <mxCell id="N__cpIRyHn8OjyqF8XuA-17" style="edgeStyle=orthogonalEdgeStyle;rounded=0;orthogonalLoop=1;jettySize=auto;html=1;entryX=0.5;entryY=0;entryDx=0;entryDy=0;" parent="WIyWlLk6GJQsqaUBKTNV-1" source="N__cpIRyHn8OjyqF8XuA-18" target="N__cpIRyHn8OjyqF8XuA-23" edge="1">
          <mxGeometry relative="1" as="geometry" />
        </mxCell>
        <mxCell id="N__cpIRyHn8OjyqF8XuA-18" value="DOUBT RESOLUTION" style="swimlane;whiteSpace=wrap;html=1;" parent="WIyWlLk6GJQsqaUBKTNV-1" vertex="1">
          <mxGeometry x="40" y="530" width="748" height="180" as="geometry" />
        </mxCell>
        <mxCell id="N__cpIRyHn8OjyqF8XuA-19" value="Known issue ?" style="rhombus;whiteSpace=wrap;html=1;" parent="N__cpIRyHn8OjyqF8XuA-18" vertex="1">
          <mxGeometry x="58" y="60" width="92" height="90" as="geometry" />
        </mxCell>
        <mxCell id="N__cpIRyHn8OjyqF8XuA-20" value="&lt;div&gt;Current actions&lt;br&gt;&lt;/div&gt;" style="rhombus;whiteSpace=wrap;html=1;" parent="N__cpIRyHn8OjyqF8XuA-18" vertex="1">
          <mxGeometry x="430" y="52.5" width="110" height="105" as="geometry" />
        </mxCell>
        <mxCell id="N__cpIRyHn8OjyqF8XuA-21" style="edgeStyle=orthogonalEdgeStyle;rounded=0;orthogonalLoop=1;jettySize=auto;html=1;entryX=1;entryY=0.5;entryDx=0;entryDy=0;" parent="N__cpIRyHn8OjyqF8XuA-18" source="N__cpIRyHn8OjyqF8XuA-22" target="N__cpIRyHn8OjyqF8XuA-20" edge="1">
          <mxGeometry relative="1" as="geometry" />
        </mxCell>
        <mxCell id="N__cpIRyHn8OjyqF8XuA-22" value="Phishing exercice in action ?" style="shape=document;whiteSpace=wrap;html=1;boundedLbl=1;" parent="N__cpIRyHn8OjyqF8XuA-18" vertex="1">
          <mxGeometry x="590" y="65" width="120" height="80" as="geometry" />
        </mxCell>
        <mxCell id="N__cpIRyHn8OjyqF8XuA-23" value="ACTIONS / RECOMMENDATIONS" style="swimlane;whiteSpace=wrap;html=1;" parent="WIyWlLk6GJQsqaUBKTNV-1" vertex="1">
          <mxGeometry x="40" y="760" width="748" height="240" as="geometry" />
        </mxCell>
        <mxCell id="N__cpIRyHn8OjyqF8XuA-24" value="" style="edgeStyle=orthogonalEdgeStyle;rounded=0;orthogonalLoop=1;jettySize=auto;html=1;" parent="N__cpIRyHn8OjyqF8XuA-23" source="N__cpIRyHn8OjyqF8XuA-26" target="N__cpIRyHn8OjyqF8XuA-27" edge="1">
          <mxGeometry relative="1" as="geometry" />
        </mxCell>
        <mxCell id="N__cpIRyHn8OjyqF8XuA-25" value="" style="edgeStyle=orthogonalEdgeStyle;rounded=0;orthogonalLoop=1;jettySize=auto;html=1;" parent="N__cpIRyHn8OjyqF8XuA-23" source="N__cpIRyHn8OjyqF8XuA-26" target="N__cpIRyHn8OjyqF8XuA-28" edge="1">
          <mxGeometry relative="1" as="geometry" />
        </mxCell>
        <mxCell id="N__cpIRyHn8OjyqF8XuA-26" value="Isolate the workstation" style="rounded=0;whiteSpace=wrap;html=1;" parent="N__cpIRyHn8OjyqF8XuA-23" vertex="1">
          <mxGeometry x="30" y="50" width="120" height="60" as="geometry" />
        </mxCell>
        <mxCell id="N__cpIRyHn8OjyqF8XuA-27" value="Disable account" style="rounded=0;whiteSpace=wrap;html=1;" parent="N__cpIRyHn8OjyqF8XuA-23" vertex="1">
          <mxGeometry x="180" y="50" width="120" height="60" as="geometry" />
        </mxCell>
        <mxCell id="N__cpIRyHn8OjyqF8XuA-28" value="Block URL / website" style="rounded=0;whiteSpace=wrap;html=1;" parent="N__cpIRyHn8OjyqF8XuA-23" vertex="1">
          <mxGeometry x="30" y="140" width="120" height="60" as="geometry" />
        </mxCell>
        <mxCell id="N__cpIRyHn8OjyqF8XuA-29" value="Internal communication" style="rounded=0;whiteSpace=wrap;html=1;" parent="N__cpIRyHn8OjyqF8XuA-23" vertex="1">
          <mxGeometry x="180" y="130" width="120" height="60" as="geometry" />
        </mxCell>
        <mxCell id="N__cpIRyHn8OjyqF8XuA-30" value="Retrieve the email from different mailboxes" style="rounded=0;whiteSpace=wrap;html=1;" parent="N__cpIRyHn8OjyqF8XuA-23" vertex="1">
          <mxGeometry x="340" y="50" width="120" height="60" as="geometry" />
        </mxCell>
        <mxCell id="N__cpIRyHn8OjyqF8XuA-31" value="" style="edgeStyle=orthogonalEdgeStyle;rounded=0;orthogonalLoop=1;jettySize=auto;html=1;" parent="N__cpIRyHn8OjyqF8XuA-23" source="N__cpIRyHn8OjyqF8XuA-32" target="N__cpIRyHn8OjyqF8XuA-33" edge="1">
          <mxGeometry relative="1" as="geometry" />
        </mxCell>
        <mxCell id="N__cpIRyHn8OjyqF8XuA-32" value="Block the sender" style="rounded=0;whiteSpace=wrap;html=1;" parent="N__cpIRyHn8OjyqF8XuA-23" vertex="1">
          <mxGeometry x="510" y="50" width="120" height="60" as="geometry" />
        </mxCell>
        <mxCell id="N__cpIRyHn8OjyqF8XuA-33" value="Block the sender&#39;s domain" style="rounded=0;whiteSpace=wrap;html=1;" parent="N__cpIRyHn8OjyqF8XuA-23" vertex="1">
          <mxGeometry x="510" y="150" width="120" height="60" as="geometry" />
        </mxCell>
        <mxCell id="N__cpIRyHn8OjyqF8XuA-34" value="Playbook réalisé par Augmented Security Force - licence&amp;nbsp;CC0 1.0 UNIVERSAL" style="text;html=1;align=center;verticalAlign=middle;whiteSpace=wrap;rounded=0;" parent="WIyWlLk6GJQsqaUBKTNV-1" vertex="1">
          <mxGeometry x="40" y="1000" width="750" height="30" as="geometry" />
        </mxCell>
        <mxCell id="N__cpIRyHn8OjyqF8XuA-35" value="Playbook réalisé par Augmented Security Force - licence&amp;nbsp;CC0 1.0 UNIVERSAL" style="text;html=1;align=center;verticalAlign=middle;whiteSpace=wrap;rounded=0;" parent="WIyWlLk6GJQsqaUBKTNV-1" vertex="1">
          <mxGeometry x="40" y="490" width="350" height="30" as="geometry" />
        </mxCell>
        <mxCell id="N__cpIRyHn8OjyqF8XuA-36" value="Playbook réalisé par Augmented Security Force - licence&amp;nbsp;CC0 1.0 UNIVERSAL" style="text;html=1;align=center;verticalAlign=middle;whiteSpace=wrap;rounded=0;" parent="WIyWlLk6GJQsqaUBKTNV-1" vertex="1">
          <mxGeometry x="40" y="720" width="350" height="30" as="geometry" />
        </mxCell>
        <mxCell id="N__cpIRyHn8OjyqF8XuA-37" value="&lt;h1 style=&quot;margin-top: 0px;&quot;&gt;Phishing&lt;/h1&gt;&lt;p style=&quot;text-align: justify;&quot;&gt;A &quot;Phishing&quot; alert is a critical notification generated by security systems when they detect a phishing attempt aimed at deceiving users into disclosing sensitive information such as login credentials, credit card numbers, or other personal data.&lt;span style=&quot;background-color: initial;&quot;&gt;.&lt;/span&gt;&lt;/p&gt;" style="text;html=1;whiteSpace=wrap;overflow=hidden;rounded=0;" parent="WIyWlLk6GJQsqaUBKTNV-1" vertex="1">
          <mxGeometry x="42" y="30" width="750" height="90" as="geometry" />
        </mxCell>
      </root>
    </mxGraphModel>
  </diagram>
</mxfile>
